<svg width="17" height="18" viewBox="0 0 17 18" fill="none" xmlns="http://www.w3.org/2000/svg">
<path d="M14.3333 5.19996L2.49995 17.0666C2.23328 17.3333 1.9164 17.4666 1.54928 17.4666C1.18217 17.4666 0.865729 17.3333 0.599951 17.0666C0.333284 16.8 0.199951 16.4831 0.199951 16.116C0.199951 15.7489 0.333284 15.4324 0.599951 15.1666L12.4666 3.3333H2.33328C1.95551 3.3333 1.63862 3.2053 1.38262 2.9493C1.12662 2.6933 0.999062 2.37685 0.999951 1.99996C0.999951 1.62219 1.12795 1.3053 1.38395 1.0493C1.63995 0.793297 1.9564 0.665742 2.33328 0.666631H15.6666C16.0444 0.666631 16.3613 0.794631 16.6173 1.05063C16.8733 1.30663 17.0008 1.62307 17 1.99996V15.3333C17 15.7111 16.872 16.028 16.616 16.284C16.36 16.54 16.0435 16.6675 15.6666 16.6666C15.2888 16.6666 14.972 16.5386 14.716 16.2826C14.46 16.0266 14.3324 15.7102 14.3333 15.3333V5.19996Z" fill="#FF8132"/>
</svg>
