<svg width="17" height="18" viewBox="0 0 17 18" fill="none" xmlns="http://www.w3.org/2000/svg">
<path d="M14.3333 5.19999L2.49995 17.0667C2.23328 17.3333 1.9164 17.4667 1.54928 17.4667C1.18217 17.4667 0.865729 17.3333 0.599951 17.0667C0.333284 16.8 0.199951 16.4831 0.199951 16.116C0.199951 15.7489 0.333284 15.4324 0.599951 15.1667L12.4666 3.33333H2.33328C1.95551 3.33333 1.63862 3.20533 1.38262 2.94933C1.12662 2.69333 0.999062 2.37688 0.999951 1.99999C0.999951 1.62222 1.12795 1.30533 1.38395 1.04933C1.63995 0.793328 1.9564 0.665772 2.33328 0.666661H15.6666C16.0444 0.666661 16.3613 0.794661 16.6173 1.05066C16.8733 1.30666 17.0008 1.62311 17 1.99999V15.3333C17 15.7111 16.872 16.028 16.616 16.284C16.36 16.54 16.0435 16.6675 15.6666 16.6667C15.2888 16.6667 14.972 16.5387 14.716 16.2827C14.46 16.0267 14.3324 15.7102 14.3333 15.3333V5.19999Z" fill="white"/>
</svg>
