<svg width="38" height="38" viewBox="0 0 38 38" fill="none" xmlns="http://www.w3.org/2000/svg">
<path d="M32.0002 10.2L5.3752 36.9C4.7752 37.5 4.0622 37.8 3.2362 37.8C2.4102 37.8 1.69819 37.5 1.10019 36.9C0.500194 36.3 0.200195 35.587 0.200195 34.761C0.200195 33.935 0.500194 33.223 1.10019 32.625L27.8002 6.00001H5.0002C4.1502 6.00001 3.4372 5.71201 2.8612 5.13601C2.2852 4.56001 1.9982 3.84801 2.0002 3.00001C2.0002 2.15001 2.2882 1.43701 2.8642 0.861011C3.4402 0.285011 4.15219 -0.00198962 5.0002 1.03806e-05H35.0002C35.8502 1.03806e-05 36.5632 0.288011 37.1392 0.864011C37.7152 1.44001 38.0022 2.15201 38.0002 3.00001V33C38.0002 33.85 37.7122 34.563 37.1362 35.139C36.5602 35.715 35.8482 36.002 35.0002 36C34.1502 36 33.4372 35.712 32.8612 35.136C32.2852 34.56 31.9982 33.848 32.0002 33V10.2Z" fill="white"/>
</svg>
