<svg width="73" height="72" viewBox="0 0 73 72" fill="none" xmlns="http://www.w3.org/2000/svg">
<path d="M66.4998 49.5V58.5C66.4998 62.64 63.1398 66 58.9998 66H37.5798C34.9098 66 33.5898 62.79 35.4498 60.9L53.0598 42.9C53.6298 42.33 54.4098 42 55.1898 42H58.9998C63.1398 42 66.4998 45.36 66.4998 49.5Z" fill="white"/>
<path d="M55.6102 33.87L47.4802 42L40.1002 49.35C38.2102 51.24 34.9702 49.92 34.9702 47.25C34.9702 37.62 34.9702 21.78 34.9702 21.78C34.9702 20.97 35.3002 20.22 35.8402 19.65L38.6002 16.89C41.5402 13.95 46.2802 13.95 49.2202 16.89L55.5802 23.25C58.5502 26.19 58.5502 30.93 55.6102 33.87Z" fill="white"/>
<path d="M23 6H14C9.5 6 6.5 9 6.5 13.5V54C6.5 54.81 6.59 55.62 6.74 56.4C6.83 56.79 6.92 57.18 7.04 57.57C7.19 58.02 7.34 58.47 7.52 58.89C7.55 58.92 7.55 58.95 7.55 58.95C7.58 58.95 7.58 58.95 7.55 58.98C7.97 59.82 8.45 60.63 9.02 61.38C9.35 61.77 9.68 62.13 10.01 62.49C10.34 62.85 10.7 63.15 11.09 63.45L11.12 63.48C11.87 64.05 12.68 64.53 13.52 64.95C13.55 64.92 13.55 64.92 13.55 64.95C14 65.16 14.45 65.31 14.93 65.46C15.32 65.58 15.71 65.67 16.1 65.76C16.88 65.91 17.69 66 18.5 66C19.73 66 20.99 65.82 22.16 65.43C22.49 65.31 22.82 65.19 23.15 65.04C24.2 64.62 25.22 64.02 26.12 63.24C26.39 63.03 26.69 62.76 26.96 62.49L27.08 62.37C29.18 60.21 30.5 57.24 30.5 54V13.5C30.5 9 27.5 6 23 6ZM18.5 58.5C16.01 58.5 14 56.49 14 54C14 51.51 16.01 49.5 18.5 49.5C20.99 49.5 23 51.51 23 54C23 56.49 20.99 58.5 18.5 58.5Z" fill="white"/>
</svg>
