<svg width="33" height="33" viewBox="0 0 33 33" fill="none" xmlns="http://www.w3.org/2000/svg">
<path d="M29.8332 14.5V21.1667C29.8332 25.8334 27.1665 27.8334 23.1665 27.8334H9.83317C5.83317 27.8334 3.1665 25.8334 3.1665 21.1667V11.8334C3.1665 7.16669 5.83317 5.16669 9.83317 5.16669H19.1665" stroke="#FF8132" stroke-width="1.5" stroke-miterlimit="10" stroke-linecap="round" stroke-linejoin="round"/>
<path d="M9.8335 12.5L14.0068 15.8333C15.3802 16.9267 17.6335 16.9267 19.0068 15.8333L20.5802 14.58" stroke="#FF8132" stroke-width="1.5" stroke-miterlimit="10" stroke-linecap="round" stroke-linejoin="round"/>
<path d="M26.4998 11.1667C28.3408 11.1667 29.8332 9.67428 29.8332 7.83333C29.8332 5.99238 28.3408 4.5 26.4998 4.5C24.6589 4.5 23.1665 5.99238 23.1665 7.83333C23.1665 9.67428 24.6589 11.1667 26.4998 11.1667Z" stroke="#FF8132" stroke-width="1.5" stroke-miterlimit="10" stroke-linecap="round" stroke-linejoin="round"/>
</svg>
