<svg width="72" height="72" viewBox="0 0 72 72" fill="none" xmlns="http://www.w3.org/2000/svg">
<path d="M63.1199 39.84L60.3599 37.14L37.1099 60.36L39.8999 63.15C42.2399 65.49 44.6699 66.66 47.0699 66.66C49.4699 66.66 51.8999 65.49 54.2399 63.15L63.1199 54.27C67.8899 49.47 67.8899 44.64 63.1199 39.84Z" fill="white"/>
<path d="M32.0698 8.79C27.3598 4.08 22.4098 4.08 17.6998 8.79L8.78978 17.67C4.10979 22.38 4.10979 27.33 8.78978 32.04L11.5498 34.8L34.7998 11.55L32.0698 8.79Z" fill="white"/>
<path d="M65.43 11.82C61.5 21.63 52.53 34.44 43.98 42.81C42.75 35.07 36.57 29.01 28.77 27.93C37.17 19.35 50.07 10.26 59.91 6.3C61.65 5.64 63.39 6.15 64.47 7.23C65.61 8.37 66.15 10.08 65.43 11.82Z" fill="white"/>
<path d="M41.3399 45.27C40.7399 45.78 40.1399 46.29 39.5399 46.77L34.1699 51.06C34.1699 50.97 34.1399 50.85 34.1399 50.73C33.7199 47.52 32.2199 44.55 29.7899 42.12C27.3299 39.66 24.2699 38.16 20.9099 37.74C20.8199 37.74 20.6999 37.71 20.6099 37.71L24.9599 32.22C25.3799 31.68 25.8299 31.17 26.3099 30.63L28.3499 30.9C34.7999 31.8 39.9899 36.87 41.0099 43.29L41.3399 45.27Z" fill="white"/>
<path d="M31.2898 52.86C31.2898 56.16 30.0298 59.31 27.6298 61.68C25.7998 63.54 23.3398 64.8 20.3398 65.16L12.9898 65.97C8.96978 66.42 5.51978 62.97 5.96978 58.92L6.77978 51.54C7.49978 44.97 12.9898 40.77 18.8098 40.65C19.3798 40.62 20.0098 40.65 20.6098 40.71C23.1598 41.04 25.6198 42.21 27.6898 44.25C29.6998 46.26 30.8398 48.63 31.1698 51.12C31.2298 51.72 31.2898 52.29 31.2898 52.86Z" fill="white"/>
</svg>
