<svg width="22" height="21" viewBox="0 0 22 21" fill="none" xmlns="http://www.w3.org/2000/svg">
<path d="M10.0668 20.2334C9.82239 19.9889 9.69439 19.6778 9.68283 19.3C9.67128 18.9222 9.78817 18.6111 10.0335 18.3667L16.5668 11.8334H1.66683C1.28906 11.8334 0.972168 11.7054 0.716168 11.4494C0.460168 11.1934 0.332612 10.8769 0.333501 10.5C0.333501 10.1222 0.461501 9.80536 0.717501 9.54936C0.973501 9.29336 1.28995 9.1658 1.66683 9.16669H16.5668L10.0335 2.63336C9.78906 2.38891 9.67217 2.0778 9.68283 1.70002C9.6935 1.32225 9.8215 1.01114 10.0668 0.766691C10.3113 0.522246 10.6224 0.400024 11.0002 0.400024C11.3779 0.400024 11.6891 0.522246 11.9335 0.766691L20.7335 9.56669C20.8668 9.6778 20.9615 9.81691 21.0175 9.98402C21.0735 10.1511 21.1011 10.3231 21.1002 10.5C21.1002 10.6778 21.0726 10.8445 21.0175 11C20.9624 11.1556 20.8677 11.3 20.7335 11.4334L11.9335 20.2334C11.6891 20.4778 11.3779 20.6 11.0002 20.6C10.6224 20.6 10.3113 20.4778 10.0668 20.2334Z" fill="white"/>
</svg>
