<svg width="72" height="72" viewBox="0 0 72 72" fill="none" xmlns="http://www.w3.org/2000/svg">
<path d="M62.97 29.13C61.95 28.71 60.6 28.5 58.92 28.5H43.08C37.86 28.5 36 30.36 36 35.64V58.86C36 60.6 36.21 61.95 36.66 63C37.59 65.16 39.57 66 43.08 66H58.92C64.14 66 66 64.11 66 58.86V35.64C66 32.07 65.16 30.06 62.97 29.13ZM54 59.25H48C47.94 59.25 47.85 59.25 47.79 59.22C47.34 59.19 46.95 59.04 46.62 58.74C46.08 58.35 45.75 57.72 45.75 57C45.75 55.77 46.77 54.75 48 54.75H54C55.23 54.75 56.25 55.77 56.25 57C56.25 58.23 55.23 59.25 54 59.25Z" fill="white"/>
<path d="M62.9703 18.57V21C62.9703 22.65 61.6203 24 59.9703 24H43.0803C35.4003 24 31.5003 27.93 31.5003 35.64V63C31.5003 64.65 30.1503 66 28.5003 66H22.6503C21.4503 66 20.4903 65.04 20.4903 63.87C20.4903 62.67 21.4503 61.74 22.6503 61.74H28.5003V50.25H18.0003C11.3403 49.92 6.03027 44.43 6.03027 37.68V18.57C6.03027 11.64 11.6703 6 18.6303 6H50.4003C57.3303 6 62.9703 11.64 62.9703 18.57Z" fill="white"/>
</svg>
